<?xml version="1.0" encoding="UTF-8" standalone="no"?>
<svg
   xmlns:dc="http://purl.org/dc/elements/1.1/"
   xmlns:cc="http://creativecommons.org/ns#"
   xmlns:rdf="http://www.w3.org/1999/02/22-rdf-syntax-ns#"
   xmlns:svg="http://www.w3.org/2000/svg"
   xmlns="http://www.w3.org/2000/svg"
   height="326.70001"
   width="798"
   xml:space="preserve"
   viewBox="0 0 797.99996 326.70002"
   y="0px"
   x="0px"
   id="Livello_1"
   version="1.1"><metadata
   id="metadata131"><rdf:RDF><cc:Work
       rdf:about=""><dc:format>image/svg+xml</dc:format><dc:type
         rdf:resource="http://purl.org/dc/dcmitype/StillImage" /><dc:title></dc:title></cc:Work></rdf:RDF></metadata><defs
   id="defs129" />
<style
   id="style2"
   type="text/css">
	.st0{fill:none;}
</style>
<g
   transform="translate(-127.9,-77.3)"
   id="g124">
	<polygon
   id="polygon4"
   points="843.5,404 876.7,299.9 877.3,299.9 884.8,276.7 545,276.7 545,77.3 477.9,286.9 " />
	<g
   id="g24">
		<polygon
   id="polygon6"
   points="363.9,201.3 342.6,201.3 342.6,202.2 347.9,209.4 347.9,266.3 341.6,273.5 341.6,274.4 364.9,274.4 364.9,273.5 358.7,266.3 358.7,209.4 363.9,202.2 " />
		<path
   id="path8"
   d="m 300.9,201.3 h -25.3 v 0.9 l 6.3,7.2 v 56.9 l -6.3,7.2 v 0.9 h 24.2 v -0.9 l -7.2,-7.2 v -28.6 c 3.3,1.7 7.5,2.5 12.4,2.5 14.3,0 24,-8.2 24,-19.7 0.1,-12.1 -10.5,-19.2 -28.1,-19.2 z m 1.1,35 c -3.6,0 -6.8,-0.8 -9.3,-2.2 V 205 h 6.8 c 11.5,0 18.2,6.1 18.2,16.4 -0.1,9.2 -5.7,14.9 -15.7,14.9 z" />
		<path
   id="path10"
   d="m 165.2,200.2 -10.3,4.6 3.4,7.2 -23.4,54.4 -7,7.2 v 0.9 h 17.8 v -0.9 l -6.3,-7.2 7.6,-17.8 h 27.1 l 7.6,17.8 -6.2,7.2 v 0.9 h 24.2 v -0.9 l -6.2,-7.2 z m -16.5,44.5 11.8,-27.7 11.9,27.7 z" />
		<path
   id="path12"
   d="m 255.3,259.7 c -2.2,7 -6.8,10.9 -13.6,10.9 h -13.4 v -61.3 l 7,-7.2 v -0.9 h -23.8 v 0.9 l 6,7.2 v 56.9 l -6.3,7.2 v 0.9 H 243 c 11.6,0 17.1,-1.7 21.2,-6.8 l -8.3,-8 z" />
		<polygon
   id="polygon14"
   points="209.6,105.6 214.7,98.4 214.7,97.6 193.5,97.6 193.5,98.4 198.8,105.6 198.8,162.5 192.5,169.7 192.5,170.6 215.7,170.6 215.7,169.7 209.6,162.5 " />
		<path
   id="path16"
   d="m 438.4,96.2 c -21.6,0 -36.8,16 -36.8,38.3 0,22.2 15.5,37.6 37.5,37.6 21.6,0 36.8,-16 36.8,-38.3 0,-22.2 -15.5,-37.6 -37.5,-37.6 z m 1.9,72.3 c -15.4,0 -26.6,-15.1 -26.6,-36.8 0,-19.6 9.5,-32.1 23.6,-32.1 15.4,0 26.6,15.1 26.6,36.8 0,19.6 -9.6,32.1 -23.6,32.1 z" />
		<path
   id="path18"
   d="m 137.1,165.8 c 4.5,3.9 10.4,6.2 17.3,6.2 12.5,0 23.5,-7.9 23.5,-21.4 0,-10.2 -5.8,-17.3 -19.4,-23.3 -12.9,-5.6 -17,-9.6 -17,-16.3 0,-7.5 5.3,-11.4 12,-11.4 8,0 12.6,5.8 12.4,15.5 l 0.7,0.4 8.9,-7.8 c -4,-7.2 -11.9,-11.5 -21.3,-11.5 -10.6,0 -21.9,5.6 -21.9,18.6 0,9.2 5.6,15.8 18.5,21.4 13.7,6 17.9,10.4 17.9,18.3 0,9.1 -6.5,13.9 -15,13.9 -10.1,0 -17.3,-6.7 -18.8,-18.1 H 131 v 20.4 h 0.9 z" />
		<polygon
   id="polygon20"
   points="366.7,105.1 349.1,155.1 347.2,147 329.1,96.4 319.2,100.1 321.1,105.2 311.1,162.5 303.7,169.7 303.7,170.6 323,170.6 323,169.7 315.3,162.5 323.9,113 344.4,170.6 348,170.6 368.1,113.2 376.6,162.5 371,169.7 371,170.6 392.7,170.6 392.7,169.7 387.5,162.5 375.6,96.4 365.4,98.3 " />
		<path
   id="path22"
   d="m 272,170.6 h 24.2 v -0.9 l -6.2,-7.2 -28.5,-66.1 -10.3,4.6 3.4,7.2 -23.4,54.4 -7,7.2 v 0.9 H 242 v -0.9 l -6.3,-7.2 7.6,-17.8 h 27.1 l 7.6,17.8 -6.2,7.2 v 0.8 z M 245.1,141 256.9,113.3 268.8,141 Z" />
	</g>
	<g
   id="g120">
		<path
   id="path26"
   d="m 718.6,208.8 c -2.6,0 -4.6,1 -6,2.9 h -0.2 v -11.2 h -2.8 V 230 h 2.8 v -12.2 c 0,-2.2 0.5,-3.8 1.6,-4.9 1.1,-1.1 2.4,-1.6 4.1,-1.6 1.5,0 2.7,0.5 3.7,1.5 0.9,1 1.4,2.5 1.4,4.5 V 230 h 2.8 v -13.3 c 0,-2.5 -0.7,-4.5 -2,-5.8 -1.5,-1.4 -3.3,-2.1 -5.4,-2.1 z" />
		<path
   id="path28"
   d="m 697.9,226.7 c -1.1,0.8 -2.4,1.2 -4.1,1.2 -2.2,0 -4,-0.8 -5.3,-2.4 -1.3,-1.6 -2,-3.5 -2,-5.8 0,-2.4 0.7,-4.4 2,-6 1.4,-1.6 3.1,-2.4 5.2,-2.4 1.6,0 3,0.4 4.1,1.3 1.1,0.9 1.8,2 2.1,3.3 h 2.8 c -0.4,-2.2 -1.4,-4 -3,-5.2 -1.6,-1.2 -3.7,-1.9 -6,-1.9 -2.9,0 -5.3,1 -7.2,3.1 -1.9,2.1 -2.8,4.7 -2.8,7.8 0,3.1 0.9,5.6 2.7,7.6 1.8,2 4.2,3 7.3,3 2.4,0 4.4,-0.6 6,-1.9 1.6,-1.3 2.7,-2.9 3.1,-5.1 H 700 c -0.3,1.5 -1,2.6 -2.1,3.4 z" />
		<path
   id="path30"
   d="m 876.9,226 v -9.9 c 0,-2.3 -0.7,-4.1 -2.1,-5.4 -1.4,-1.3 -3.2,-1.9 -5.5,-1.9 -2.2,0 -4,0.6 -5.3,1.9 -1.3,1.2 -2.1,2.9 -2.3,4.9 h 2.8 c 0.5,-2.9 2.1,-4.4 4.9,-4.4 1.6,0 2.8,0.5 3.6,1.4 0.8,0.9 1.2,2.1 1.2,3.7 v 1.4 l -6.1,0.6 c -2.2,0.2 -3.9,0.8 -5.3,1.9 -1.3,1.1 -2,2.6 -2,4.4 0,1.9 0.6,3.4 1.8,4.4 1.2,1 2.8,1.5 4.8,1.5 3,0 5.3,-1.1 6.9,-3.2 0.3,1.8 1.4,2.7 3.4,2.7 h 1.4 v -2.2 h -0.5 c -1.1,0 -1.7,-0.6 -1.7,-1.8 z m -2.8,-4 c 0,2 -0.6,3.5 -1.9,4.5 -1.3,1 -2.8,1.5 -4.5,1.5 -1.2,0 -2.2,-0.3 -3,-0.9 -0.8,-0.6 -1.2,-1.5 -1.2,-2.7 0,-1.2 0.5,-2.2 1.4,-3 0.9,-0.7 2.2,-1.1 3.8,-1.3 l 5.3,-0.5 v 2.4 z" />
		<rect
   id="rect32"
   height="20.799999"
   width="2.8"
   y="209.2"
   x="733.79999" />
		<path
   id="path34"
   d="m 665.8,226 v -9.9 c 0,-2.3 -0.7,-4.1 -2.1,-5.4 -1.4,-1.3 -3.2,-1.9 -5.5,-1.9 -2.2,0 -4,0.6 -5.3,1.9 -1.3,1.2 -2.1,2.9 -2.3,4.9 h 2.8 c 0.5,-2.9 2.1,-4.4 4.9,-4.4 1.6,0 2.8,0.5 3.6,1.4 0.8,0.9 1.2,2.1 1.2,3.7 v 1.4 l -6.1,0.6 c -2.2,0.2 -3.9,0.8 -5.3,1.9 -1.3,1.1 -2,2.6 -2,4.4 0,1.9 0.6,3.4 1.8,4.4 1.2,1 2.8,1.5 4.8,1.5 3,0 5.3,-1.1 6.9,-3.2 0.3,1.8 1.4,2.7 3.4,2.7 h 1.4 v -2.2 h -0.5 c -1.1,0 -1.7,-0.6 -1.7,-1.8 z m -2.8,-4 c 0,2 -0.6,3.5 -1.9,4.5 -1.3,1 -2.8,1.5 -4.5,1.5 -1.2,0 -2.2,-0.3 -3,-0.9 -0.8,-0.6 -1.2,-1.5 -1.2,-2.7 0,-1.2 0.5,-2.2 1.4,-3 0.9,-0.7 2.2,-1.1 3.8,-1.3 l 5.3,-0.5 v 2.4 z" />
		<polygon
   id="polygon36"
   points="625.9,200.9 622.8,200.9 633.2,230 636.8,230 647.3,200.9 644.1,200.9 635.2,226.2 634.9,226.2 " />
		<path
   id="path38"
   d="m 822.4,208.8 c -2.6,0 -4.6,1 -6,2.9 h -0.3 l -0.3,-2.5 h -2.5 V 230 h 2.8 v -12.2 c 0,-2.2 0.5,-3.8 1.6,-4.9 1.1,-1.1 2.4,-1.6 4.1,-1.6 1.5,0 2.7,0.5 3.7,1.5 0.9,1 1.4,2.5 1.4,4.5 V 230 h 2.8 v -13.3 c 0,-2.5 -0.7,-4.5 -2,-5.8 -1.4,-1.4 -3.2,-2.1 -5.3,-2.1 z" />
		<path
   id="path40"
   d="m 599,207.8 c -2.8,0 -5.1,1 -6.9,3 -1.8,2 -2.7,4.7 -2.7,8 0,3.2 0.9,5.8 2.7,7.7 1.8,1.9 4.1,2.9 7,2.9 2.2,0 4.1,-0.5 5.7,-1.6 1.6,-1.1 2.5,-2.6 3,-4.6 H 605 c -0.4,1.2 -1.1,2.2 -2.1,2.8 -1,0.7 -2.3,1 -3.8,1 -2.1,0 -3.7,-0.7 -5,-2.1 -1.3,-1.4 -1.9,-3.3 -2,-5.7 h 15.8 c 0.1,-0.3 0.1,-0.7 0.1,-1.1 0,-3.2 -0.8,-5.8 -2.5,-7.6 -1.8,-1.8 -3.9,-2.7 -6.5,-2.7 z m -6.9,9.3 c 0.2,-2 0.9,-3.6 2.1,-4.9 1.2,-1.3 2.8,-2 4.7,-2 1.8,0 3.3,0.6 4.5,1.9 1.1,1.3 1.7,2.9 1.8,5 z" />
		<rect
   id="rect42"
   height="29.5"
   width="2.8"
   y="200.5"
   x="674.09998" />
		<path
   id="path44"
   d="m 735.2,201.6 c -0.6,0 -1,0.2 -1.4,0.6 -0.4,0.4 -0.6,0.8 -0.6,1.4 0,0.6 0.2,1 0.6,1.4 0.4,0.4 0.9,0.6 1.4,0.6 0.6,0 1,-0.2 1.4,-0.6 0.4,-0.4 0.6,-0.9 0.6,-1.4 0,-0.6 -0.2,-1 -0.6,-1.4 -0.4,-0.4 -0.9,-0.6 -1.4,-0.6 z" />
		<path
   id="path46"
   d="m 846.6,208.8 c -2.6,0 -4.6,1 -6,2.9 h -0.2 l -0.3,-2.5 h -2.5 V 230 h 2.8 v -12.2 c 0,-2.2 0.5,-3.8 1.6,-4.9 1.1,-1.1 2.4,-1.6 4.1,-1.6 1.5,0 2.7,0.5 3.7,1.5 0.9,1 1.4,2.5 1.4,4.5 V 230 h 2.8 v -13.3 c 0,-2.5 -0.7,-4.5 -2,-5.8 -1.5,-1.4 -3.3,-2.1 -5.4,-2.1 z" />
		<path
   id="path48"
   d="m 797.3,208.8 c -2.8,0 -5.1,1 -6.9,3 -1.8,2 -2.7,4.7 -2.7,8 0,3.2 0.9,5.8 2.7,7.7 1.8,1.9 4.1,2.9 7,2.9 2.2,0 4.1,-0.5 5.7,-1.6 1.5,-1.1 2.5,-2.6 3,-4.6 h -2.7 c -0.4,1.2 -1.1,2.2 -2.1,2.8 -1,0.6 -2.3,1 -3.8,1 -2,0 -3.7,-0.7 -5,-2.1 -1.3,-1.4 -1.9,-3.3 -2,-5.7 h 15.8 c 0.1,-0.3 0.1,-0.7 0.1,-1.1 0,-3.2 -0.8,-5.8 -2.5,-7.6 -1.8,-1.8 -4,-2.7 -6.6,-2.7 z m -6.8,9.2 c 0.2,-2 0.9,-3.6 2.1,-4.9 1.2,-1.3 2.8,-2 4.7,-2 1.8,0 3.3,0.6 4.5,1.9 1.1,1.3 1.7,2.9 1.8,5 z" />
		<polygon
   id="polygon50"
   points="767.6,209.2 764.6,209.2 772.5,230 776.1,230 784,209.2 781.1,209.2 774.4,227.1 774.2,227.1 " />
		<path
   id="path52"
   d="m 759.6,226 v -9.9 c 0,-2.3 -0.7,-4.1 -2.1,-5.4 -1.4,-1.3 -3.2,-1.9 -5.5,-1.9 -2.2,0 -4,0.6 -5.3,1.9 -1.3,1.2 -2.1,2.9 -2.3,4.9 h 2.8 c 0.5,-2.9 2.1,-4.4 4.9,-4.4 1.6,0 2.8,0.5 3.6,1.4 0.8,0.9 1.2,2.1 1.2,3.7 v 1.4 l -6.1,0.6 c -2.2,0.2 -3.9,0.8 -5.3,1.9 -1.3,1.1 -2,2.6 -2,4.4 0,1.9 0.6,3.4 1.8,4.4 1.2,1 2.8,1.5 4.8,1.5 3,0 5.3,-1.1 6.9,-3.2 0.3,1.8 1.4,2.7 3.4,2.7 h 1.4 v -2.2 h -0.5 c -1.2,0 -1.7,-0.6 -1.7,-1.8 z m -2.8,-4 c 0,2 -0.6,3.5 -1.9,4.5 -1.3,1 -2.8,1.5 -4.5,1.5 -1.2,0 -2.2,-0.3 -3,-0.9 -0.8,-0.6 -1.2,-1.5 -1.2,-2.7 0,-1.2 0.5,-2.2 1.4,-3 0.9,-0.7 2.2,-1.1 3.8,-1.3 l 5.3,-0.5 v 2.4 z" />
		<path
   id="path54"
   d="m 617.7,151.7 c -0.6,0 -1,0.2 -1.4,0.6 -0.4,0.4 -0.6,0.8 -0.6,1.4 0,0.6 0.2,1 0.6,1.4 0.4,0.4 0.9,0.6 1.4,0.6 0.6,0 1,-0.2 1.4,-0.6 0.4,-0.4 0.6,-0.9 0.6,-1.4 0,-0.6 -0.2,-1 -0.6,-1.4 -0.4,-0.4 -0.8,-0.6 -1.4,-0.6 z" />
		<polygon
   id="polygon56"
   points="647.2,176.4 638.2,151 635.1,151 645.5,180.1 649.1,180.1 659.6,151 656.4,151 647.5,176.4 " />
		<rect
   id="rect58"
   height="29.5"
   width="2.8"
   y="150.60001"
   x="747.20001" />
		<path
   id="path60"
   d="m 759.2,155.7 c 0.6,0 1,-0.2 1.4,-0.6 0.4,-0.4 0.6,-0.9 0.6,-1.4 0,-0.6 -0.2,-1 -0.6,-1.4 -0.4,-0.4 -0.8,-0.6 -1.4,-0.6 -0.6,0 -1,0.2 -1.4,0.6 -0.4,0.4 -0.6,0.8 -0.6,1.4 0,0.6 0.2,1 0.6,1.4 0.3,0.4 0.8,0.6 1.4,0.6 z" />
		<path
   id="path62"
   d="m 807.7,176.1 v -9.9 c 0,-2.3 -0.7,-4.1 -2.1,-5.4 -1.4,-1.3 -3.2,-2 -5.5,-2 -2.2,0 -4,0.6 -5.3,1.9 -1.3,1.2 -2.1,2.9 -2.4,4.9 h 2.8 c 0.5,-2.9 2.1,-4.4 4.9,-4.4 1.6,0 2.8,0.5 3.6,1.4 0.8,0.9 1.2,2.2 1.2,3.7 v 1.4 l -6.1,0.6 c -2.2,0.2 -3.9,0.8 -5.3,1.9 -1.3,1.1 -2,2.6 -2,4.4 0,1.9 0.6,3.4 1.8,4.4 1.2,1 2.8,1.5 4.8,1.5 3,0 5.3,-1.1 6.9,-3.2 0.3,1.8 1.4,2.7 3.4,2.7 h 1.4 v -2.2 h -0.5 c -1.1,0.1 -1.6,-0.5 -1.6,-1.7 z m -2.8,-3.9 c 0,2 -0.6,3.5 -1.9,4.5 -1.3,1 -2.8,1.5 -4.5,1.5 -1.2,0 -2.2,-0.3 -3,-0.9 -0.8,-0.6 -1.2,-1.5 -1.2,-2.7 0,-1.2 0.5,-2.2 1.4,-3 0.9,-0.7 2.2,-1.2 3.8,-1.3 l 5.3,-0.5 v 2.4 z" />
		<path
   id="path64"
   d="m 605.7,162.5 c -1.5,-2.4 -3.8,-3.6 -6.9,-3.6 -2.8,0 -5,1 -6.8,3 -1.8,2 -2.6,4.6 -2.6,7.8 0,3.2 0.9,5.9 2.6,7.9 1.7,2 4,3 6.8,3 3,0 5.3,-1.2 6.9,-3.6 h 0.2 l 0.3,3.2 h 2.3 v -29.5 h -2.8 z m -1.8,13.2 c -1.2,1.5 -2.8,2.3 -4.9,2.3 -2,0 -3.7,-0.8 -5,-2.3 -1.3,-1.5 -1.9,-3.6 -1.9,-6 0,-2.5 0.6,-4.5 1.9,-6 1.3,-1.5 3,-2.3 5,-2.3 2,0 3.6,0.8 4.9,2.3 1.2,1.5 1.8,3.5 1.8,6 0,2.5 -0.6,4.5 -1.8,6 z" />
		<rect
   id="rect66"
   height="20.799999"
   width="2.8"
   y="159.3"
   x="616.29999" />
		<rect
   id="rect68"
   height="29.5"
   width="2.8"
   y="150.60001"
   x="686.5" />
		<rect
   id="rect70"
   height="20.799999"
   width="2.8"
   y="159.3"
   x="757.70001" />
		<path
   id="path72"
   d="m 702,153.7 h -2.5 v 2.7 c 0,1.1 -0.2,1.9 -0.7,2.3 -0.5,0.4 -1.3,0.7 -2.5,0.7 h -1.4 v 2.3 h 4.4 V 176 c 0,1.4 0.4,2.5 1.1,3.3 0.7,0.8 1.9,1.3 3.6,1.3 0.8,0 1.6,-0.1 2.7,-0.4 v -2.3 c -0.7,0.2 -1.3,0.3 -2,0.3 -1.7,0 -2.6,-0.9 -2.6,-2.7 v -13.9 h 5 v -2.3 h -5 v -5.6 z" />
		<rect
   id="rect74"
   height="29.5"
   width="2.8"
   y="150.60001"
   x="736.59998" />
		<path
   id="path76"
   d="m 720.5,158.9 c -2.8,0 -5.1,1 -6.9,3 -1.8,2 -2.7,4.7 -2.7,8 0,3.2 0.9,5.7 2.7,7.7 1.8,1.9 4.1,2.9 7,2.9 2.2,0 4.1,-0.5 5.7,-1.6 1.6,-1.1 2.6,-2.6 3,-4.6 h -2.7 c -0.4,1.2 -1.1,2.2 -2.1,2.8 -1,0.6 -2.3,1 -3.8,1 -2,0 -3.7,-0.7 -5,-2.1 -1.3,-1.4 -1.9,-3.3 -2,-5.7 h 15.8 c 0.1,-0.3 0.1,-0.7 0.1,-1.1 0,-3.2 -0.8,-5.8 -2.5,-7.6 -1.8,-1.8 -4,-2.7 -6.6,-2.7 z m -6.8,9.2 c 0.2,-2 0.9,-3.6 2.1,-4.9 1.2,-1.3 2.8,-2 4.7,-2 1.8,0 3.3,0.6 4.5,1.9 1.2,1.3 1.7,2.9 1.8,5 z" />
		<path
   id="path78"
   d="m 777.3,158.9 c -2.6,0 -4.6,1 -6,2.9 h -0.2 l -0.3,-2.5 h -2.5 v 20.8 h 2.8 v -12.2 c 0,-2.2 0.5,-3.8 1.6,-4.9 1.1,-1.1 2.4,-1.6 4.1,-1.6 1.5,0 2.7,0.5 3.7,1.5 0.9,1 1.4,2.5 1.4,4.5 v 12.7 h 2.8 v -13.3 c 0,-2.5 -0.7,-4.5 -2,-5.8 -1.5,-1.4 -3.2,-2.1 -5.4,-2.1 z" />
		<path
   id="path80"
   d="m 678.1,176.1 v -9.9 c 0,-2.3 -0.7,-4.1 -2.1,-5.4 -1.4,-1.3 -3.2,-2 -5.6,-2 -2.2,0 -4,0.6 -5.3,1.9 -1.3,1.2 -2.1,2.9 -2.4,4.9 h 2.8 c 0.5,-2.9 2.2,-4.4 4.9,-4.4 1.6,0 2.8,0.5 3.6,1.4 0.8,0.9 1.2,2.2 1.2,3.7 v 1.4 l -6.1,0.6 c -2.2,0.2 -3.9,0.8 -5.3,1.9 -1.3,1.1 -2,2.6 -2,4.4 0,1.9 0.6,3.4 1.8,4.4 1.2,1 2.8,1.5 4.8,1.5 3,0 5.3,-1.1 6.9,-3.2 0.3,1.8 1.4,2.7 3.4,2.7 h 1.4 v -2.2 h -0.5 c -0.9,0.1 -1.5,-0.5 -1.5,-1.7 z m -2.7,-3.9 c 0,2 -0.6,3.5 -1.9,4.5 -1.3,1 -2.7,1.5 -4.5,1.5 -1.2,0 -2.2,-0.3 -3,-0.9 -0.8,-0.6 -1.2,-1.5 -1.2,-2.7 0,-1.2 0.5,-2.2 1.4,-3 0.9,-0.7 2.2,-1.2 3.8,-1.3 l 5.3,-0.5 v 2.4 z" />
		<path
   id="path82"
   d="m 655.4,118 c 0,-2.2 0.5,-3.8 1.6,-4.9 1.1,-1.1 2.4,-1.6 4.1,-1.6 1.5,0 2.7,0.5 3.7,1.5 0.9,1 1.4,2.5 1.4,4.5 v 12.7 h 2.8 v -13.3 c 0,-2.5 -0.7,-4.5 -2,-5.8 -1.4,-1.4 -3.1,-2 -5.3,-2 -2.6,0 -4.6,1 -6,2.9 h -0.2 v -11.2 h -2.8 v 29.5 h 2.8 V 118 Z" />
		<path
   id="path84"
   d="m 821.5,126 c 0,1.4 0.4,2.5 1.1,3.3 0.8,0.8 1.9,1.3 3.6,1.3 0.8,0 1.6,-0.1 2.7,-0.4 v -2.3 c -0.7,0.2 -1.3,0.3 -2,0.3 -1.7,0 -2.6,-0.9 -2.6,-2.7 v -13.9 h 5 v -2.3 h -5 v -5.7 h -2.5 v 2.7 c 0,1.1 -0.2,1.9 -0.7,2.3 -0.5,0.4 -1.3,0.7 -2.5,0.7 h -1.4 v 2.3 h 4.4 V 126 Z" />
		<path
   id="path86"
   d="m 636.9,130.6 c 2.4,0 4.4,-0.6 6,-1.9 1.6,-1.3 2.7,-2.9 3.1,-5.1 h -2.8 c -0.4,1.4 -1.2,2.5 -2.2,3.3 -1.1,0.8 -2.4,1.2 -4.1,1.2 -2.2,0 -4,-0.8 -5.3,-2.3 -1.3,-1.6 -2,-3.5 -2,-5.8 0,-2.4 0.7,-4.4 2,-6 1.4,-1.6 3.1,-2.4 5.2,-2.4 1.6,0 3,0.4 4.1,1.3 1.1,0.9 1.8,2 2.1,3.3 h 2.8 c -0.4,-2.2 -1.4,-4 -3,-5.2 -1.7,-1.3 -3.7,-1.9 -6,-1.9 -2.9,0 -5.3,1 -7.2,3.1 -1.9,2.1 -2.8,4.7 -2.8,7.8 0,3.1 0.9,5.6 2.7,7.6 1.9,2 4.3,3 7.4,3 z" />
		<rect
   id="rect88"
   height="20.799999"
   width="2.8"
   y="109.4"
   x="676.79999" />
		<polygon
   id="polygon90"
   points="701.5,109.4 694.9,127.3 694.6,127.3 688,109.4 685.1,109.4 693,130.2 696.6,130.2 704.5,109.4 " />
		<path
   id="path92"
   d="m 769,130.6 c 2.4,0 4.4,-0.6 6,-1.9 1.6,-1.3 2.7,-2.9 3.1,-5.1 h -2.8 c -0.4,1.4 -1.2,2.5 -2.2,3.3 -1.1,0.8 -2.4,1.2 -4.1,1.2 -2.2,0 -4,-0.8 -5.3,-2.3 -1.3,-1.6 -2,-3.5 -2,-5.8 0,-2.4 0.7,-4.4 2,-6 1.4,-1.6 3.1,-2.4 5.2,-2.4 1.6,0 3,0.4 4.1,1.3 1.1,0.9 1.8,2 2.1,3.3 h 2.8 c -0.4,-2.2 -1.4,-4 -3,-5.2 -1.7,-1.3 -3.7,-1.9 -6,-1.9 -2.9,0 -5.3,1 -7.2,3.1 -1.9,2.1 -2.8,4.7 -2.8,7.8 0,3.1 0.9,5.6 2.7,7.6 1.9,2 4.4,3 7.4,3 z" />
		<path
   id="path94"
   d="m 678.2,105.8 c 0.6,0 1,-0.2 1.4,-0.6 0.4,-0.4 0.6,-0.9 0.6,-1.4 0,-0.6 -0.2,-1 -0.6,-1.4 -0.4,-0.4 -0.8,-0.6 -1.4,-0.6 -0.6,0 -1,0.2 -1.4,0.6 -0.4,0.4 -0.6,0.8 -0.6,1.4 0,0.6 0.2,1 0.6,1.4 0.3,0.4 0.8,0.6 1.4,0.6 z" />
		<path
   id="path96"
   d="m 889.3,126.2 v -9.9 c 0,-2.3 -0.7,-4.1 -2.1,-5.4 -1.4,-1.3 -3.2,-2 -5.6,-2 -2.2,0 -4,0.6 -5.3,1.9 -1.3,1.2 -2.1,2.9 -2.4,4.9 h 2.8 c 0.5,-2.9 2.2,-4.4 4.9,-4.4 1.6,0 2.8,0.5 3.6,1.4 0.8,0.9 1.2,2.2 1.2,3.7 v 1.4 l -6.1,0.6 c -2.2,0.2 -3.9,0.8 -5.3,1.9 -1.3,1.1 -2,2.6 -2,4.4 0,1.9 0.6,3.4 1.9,4.4 1.2,1 2.8,1.5 4.8,1.5 3,0 5.3,-1.1 6.9,-3.2 0.3,1.8 1.4,2.7 3.4,2.7 h 1.4 V 128 H 891 c -1.1,0 -1.7,-0.6 -1.7,-1.8 z m -2.8,-3.9 c 0,2 -0.6,3.5 -1.9,4.5 -1.3,1 -2.8,1.5 -4.5,1.5 -1.2,0 -2.2,-0.3 -3,-0.9 -0.8,-0.6 -1.2,-1.5 -1.2,-2.7 0,-1.2 0.5,-2.2 1.4,-3 0.9,-0.8 2.2,-1.2 3.8,-1.3 l 5.3,-0.5 v 2.4 z" />
		<path
   id="path98"
   d="m 797.9,127.7 h 0.3 l 0.3,2.5 h 2.5 v -20.8 h -2.8 v 12.2 c 0,2.2 -0.5,3.8 -1.6,4.9 -1.1,1.1 -2.4,1.6 -4.1,1.6 -1.5,0 -2.7,-0.5 -3.7,-1.5 -0.9,-1 -1.4,-2.5 -1.4,-4.5 v -12.7 h -2.8 v 13.3 c 0,2.5 0.7,4.5 2,5.8 1.4,1.4 3.1,2 5.3,2 2.6,0.1 4.6,-0.8 6,-2.8 z" />
		<path
   id="path100"
   d="m 862.2,118.7 c 0,-2.2 0.5,-3.9 1.5,-5.1 1,-1.2 2.3,-1.9 3.9,-1.9 0.8,0 1.3,0 1.7,0.1 V 109 h -1.1 c -2.7,0 -4.6,1.1 -5.8,3.2 h -0.2 l -0.3,-2.8 h -2.5 v 20.8 h 2.8 z" />
		<path
   id="path102"
   d="m 848.4,127.7 h 0.2 l 0.3,2.5 h 2.5 v -20.8 h -2.8 v 12.2 c 0,2.2 -0.5,3.8 -1.6,4.9 -1.1,1.1 -2.4,1.6 -4.1,1.6 -1.5,0 -2.7,-0.5 -3.7,-1.5 -0.9,-1 -1.4,-2.5 -1.4,-4.5 V 109.4 H 835 v 13.3 c 0,2.5 0.7,4.5 2,5.8 1.4,1.4 3.1,2 5.3,2 2.8,0.1 4.8,-0.8 6.1,-2.8 z" />
		<rect
   id="rect104"
   height="29.5"
   width="2.8"
   y="100.7"
   x="808.79999" />
		<path
   id="path106"
   d="m 729.9,109 c -2.9,0 -5.4,1 -7.3,3.1 -1.9,2 -2.8,4.6 -2.8,7.7 0,3.1 1,5.6 2.8,7.7 1.9,2.1 4.3,3.1 7.3,3.1 2.9,0 5.4,-1 7.3,-3.1 1.9,-2 2.9,-4.6 2.9,-7.7 0,-3.1 -1,-5.6 -2.9,-7.7 -2,-2.1 -4.4,-3.1 -7.3,-3.1 z m 5.3,16.7 c -1.4,1.6 -3.2,2.4 -5.3,2.4 -2.2,0 -3.9,-0.8 -5.3,-2.4 -1.4,-1.6 -2.1,-3.6 -2.1,-5.9 0,-2.3 0.7,-4.3 2,-5.9 1.4,-1.6 3.1,-2.4 5.3,-2.4 2.2,0 3.9,0.8 5.3,2.4 1.4,1.6 2.1,3.6 2.1,5.9 0.1,2.4 -0.6,4.3 -2,5.9 z" />
		<rect
   id="rect108"
   height="29.5"
   width="2.8"
   y="100.7"
   x="897.59998" />
		<path
   id="path110"
   d="M 623.1,109 H 622 c -2.7,0 -4.6,1.1 -5.8,3.2 h -0.3 l -0.3,-2.8 h -2.5 v 20.8 h 2.8 v -11.5 c 0,-2.2 0.5,-3.9 1.5,-5.1 1,-1.2 2.3,-1.9 3.9,-1.9 0.8,0 1.3,0 1.7,0.1 V 109 Z" />
		<rect
   id="rect112"
   height="20.799999"
   width="2.8"
   y="109.4"
   x="710.09998" />
		<path
   id="path114"
   d="m 925.9,119.3 c 0,-3.2 -0.8,-5.8 -2.5,-7.6 -1.7,-1.8 -3.8,-2.7 -6.4,-2.7 -2.8,0 -5.1,1 -6.9,3 -1.8,2 -2.7,4.7 -2.7,8 0,3.2 0.9,5.7 2.7,7.7 1.8,1.9 4.1,2.9 7,2.9 2.2,0 4.1,-0.5 5.7,-1.6 1.6,-1.1 2.6,-2.6 3,-4.6 H 923 c -0.4,1.2 -1.1,2.2 -2.1,2.8 -1,0.6 -2.3,1 -3.8,1 -2,0 -3.7,-0.7 -5,-2.1 -1.3,-1.4 -1.9,-3.3 -2,-5.7 h 15.8 c 0,-0.3 0,-0.7 0,-1.1 z m -15.8,-1.1 c 0.2,-2 0.9,-3.6 2.1,-4.9 1.2,-1.3 2.8,-2 4.7,-2 1.8,0 3.3,0.6 4.5,1.9 1.2,1.3 1.7,2.9 1.8,5 z" />
		<path
   id="path116"
   d="m 711.5,105.8 c 0.6,0 1,-0.2 1.4,-0.6 0.4,-0.4 0.6,-0.9 0.6,-1.4 0,-0.6 -0.2,-1 -0.6,-1.4 -0.4,-0.4 -0.8,-0.6 -1.4,-0.6 -0.6,0 -1,0.2 -1.4,0.6 -0.4,0.4 -0.6,0.8 -0.6,1.4 0,0.6 0.2,1 0.6,1.4 0.4,0.4 0.9,0.6 1.4,0.6 z" />
		<path
   id="path118"
   d="m 596.1,118.4 c -2.2,0.2 -3.9,0.8 -5.3,1.9 -1.3,1.1 -2,2.6 -2,4.4 0,1.9 0.6,3.4 1.8,4.4 1.2,1 2.8,1.5 4.8,1.5 3,0 5.3,-1.1 6.9,-3.2 0.3,1.8 1.4,2.7 3.4,2.7 h 1.4 V 128 h -0.5 c -1.1,0 -1.7,-0.6 -1.7,-1.8 v -9.9 c 0,-2.3 -0.7,-4.1 -2.1,-5.4 -1.4,-1.3 -3.2,-2 -5.5,-2 -2.2,0 -4,0.6 -5.3,1.9 -1.3,1.2 -2.1,2.9 -2.4,4.9 h 2.8 c 0.5,-2.9 2.1,-4.4 4.9,-4.4 1.6,0 2.8,0.5 3.6,1.4 0.8,0.9 1.2,2.2 1.2,3.7 v 1.4 z m 6,3.9 c 0,2 -0.6,3.5 -1.9,4.5 -1.3,1 -2.7,1.5 -4.5,1.5 -1.2,0 -2.2,-0.3 -3,-0.9 -0.8,-0.6 -1.2,-1.5 -1.2,-2.7 0,-1.2 0.5,-2.2 1.4,-3 0.9,-0.7 2.2,-1.2 3.8,-1.3 l 5.3,-0.5 v 2.4 z" />
	</g>
	<rect
   style="fill:none"
   id="rect122"
   height="326.60001"
   width="798"
   class="st0"
   y="77.300003"
   x="127.9" />
</g>
</svg>