<?xml version="1.0" encoding="utf-8"?>
<!-- Generator: Adobe Illustrator 22.1.0, SVG Export Plug-In . SVG Version: 6.00 Build 0)  -->
<svg version="1.1" id="Livello_1" xmlns="http://www.w3.org/2000/svg" xmlns:xlink="http://www.w3.org/1999/xlink" x="0px" y="0px"
	 viewBox="0 0 39.7 39.7" style="enable-background:new 0 0 39.7 39.7;" xml:space="preserve">
<style type="text/css">
	.st0{clip-path:url(#SVGID_1_);fill:#2B3085;}
	.st1{clip-path:url(#SVGID_1_);fill:none;stroke:#009879;stroke-width:0.3;}
</style>
<g>
	<defs>
		<rect id="SVGID_3_" x="0.9" y="0.9" width="37.9" height="37.9"/>
	</defs>
	<clipPath id="SVGID_1_">
		<use xlink:href="#SVGID_3_"  style="overflow:visible;"/>
	</clipPath>
	<path class="st0" d="M25.4,12.7c-0.1,0-0.1,0-0.2,0c-0.7,0-1.5,0-2.2,0c-0.9,0-1.4,0.5-1.4,1.4c0,0.9,0,1.8,0,2.8c0,0,0,0,0,0.1
		h3.7c-0.2,1.3-0.3,2.5-0.5,3.8h-3.3c0,0.1,0,0.1,0,0.2c0,3.1,0,6.3,0,9.4c0,0,0,0.1,0,0.1h-3.9c0-0.1,0-0.2,0-0.3
		c0-3.1,0-6.1,0-9.2v-0.3h-3.3V17h3.3c0-0.1,0-0.2,0-0.3c0-1,0-2,0-3c0.1-1.2,0.4-2.3,1.3-3.2c0.6-0.7,1.4-1.1,2.4-1.3
		c0.7-0.2,1.5-0.1,2.2-0.1c0.6,0,1.2,0.1,1.8,0.1c0,0,0.1,0,0.2,0V12.7z M38.7,19.9c0-10.4-8.4-18.8-18.8-18.8S1.1,9.5,1.1,19.9
		c0,10.4,8.4,18.8,18.8,18.8S38.7,30.3,38.7,19.9"/>
	<path class="st1" d="M25.4,12.7c-0.1,0-0.1,0-0.2,0c-0.7,0-1.5,0-2.2,0c-0.9,0-1.4,0.5-1.4,1.4c0,0.9,0,1.8,0,2.8c0,0,0,0,0,0.1
		h3.7c-0.2,1.3-0.3,2.5-0.5,3.8h-3.3c0,0.1,0,0.1,0,0.2c0,3.1,0,6.3,0,9.4c0,0,0,0.1,0,0.1h-3.9c0-0.1,0-0.2,0-0.3
		c0-3.1,0-6.1,0-9.2v-0.3h-3.3V17h3.3c0-0.1,0-0.2,0-0.3c0-1,0-2,0-3c0.1-1.2,0.4-2.3,1.3-3.2c0.6-0.7,1.4-1.1,2.4-1.3
		c0.7-0.2,1.5-0.1,2.2-0.1c0.6,0,1.2,0.1,1.8,0.1c0,0,0.1,0,0.2,0V12.7z M38.7,19.9c0-10.4-8.4-18.8-18.8-18.8S1.1,9.5,1.1,19.9
		c0,10.4,8.4,18.8,18.8,18.8S38.7,30.3,38.7,19.9z"/>
</g>
</svg>
