<?xml version="1.0" encoding="utf-8"?>
<!-- Generator: Adobe Illustrator 22.1.0, SVG Export Plug-In . SVG Version: 6.00 Build 0)  -->
<svg version="1.1" id="Livello_1" xmlns="http://www.w3.org/2000/svg" xmlns:xlink="http://www.w3.org/1999/xlink" x="0px" y="0px"
	 viewBox="0 0 39.7 39.7" style="enable-background:new 0 0 39.7 39.7;" xml:space="preserve">
<style type="text/css">
	.st0{clip-path:url(#SVGID_2_);fill:#2B3085;}
	.st1{clip-path:url(#SVGID_2_);fill:none;stroke:#009879;stroke-width:0.3;}
</style>
<g>
	<defs>
		<rect id="SVGID_1_" x="0.9" y="0.9" width="37.9" height="37.9"/>
	</defs>
	<clipPath id="SVGID_2_">
		<use xlink:href="#SVGID_1_"  style="overflow:visible;"/>
	</clipPath>
	<path class="st0" d="M22.3,22.3c0.7-0.7,1-1.5,1-2.4c0-0.9-0.3-1.7-1-2.4c-0.7-0.7-1.5-1-2.4-1s-1.7,0.3-2.4,1
		c-0.7,0.7-1,1.5-1,2.4c0,0.9,0.3,1.7,1,2.4c0.7,0.7,1.5,1,2.4,1S21.6,22.9,22.3,22.3 M26.5,14.4c0,0.3-0.1,0.6-0.3,0.9
		c-0.2,0.2-0.5,0.4-0.8,0.4c-0.3,0-0.6-0.1-0.9-0.4c-0.2-0.2-0.4-0.5-0.4-0.9c0-0.3,0.1-0.6,0.4-0.8c0.2-0.2,0.5-0.3,0.9-0.3
		c0.3,0,0.6,0.1,0.8,0.3C26.4,13.8,26.5,14.1,26.5,14.4 M23.6,16.2c1,1,1.5,2.2,1.5,3.7c0,1.5-0.5,2.7-1.5,3.7c-1,1-2.2,1.5-3.7,1.5
		s-2.7-0.5-3.7-1.5c-1-1-1.5-2.2-1.5-3.7c0-1.5,0.5-2.7,1.5-3.7c1-1,2.2-1.5,3.7-1.5S22.6,15.2,23.6,16.2 M28.2,23.6
		c0-0.5,0-1,0-1.3v-1.4v-1v-1v-1.4c0-0.3,0-0.8,0-1.3c0-0.5-0.1-1-0.1-1.4c-0.1-0.4-0.1-0.7-0.2-0.9c-0.4-0.9-1-1.6-2-2
		c-0.2-0.1-0.6-0.2-0.9-0.2c-0.4-0.1-0.8-0.1-1.4-0.1c-0.5,0-1,0-1.3,0h-1.4h-1h-1h-1.4c-0.3,0-0.8,0-1.3,0c-0.5,0-1,0.1-1.4,0.1
		c-0.4,0.1-0.7,0.1-0.9,0.2c-0.9,0.4-1.6,1-2,2c-0.1,0.2-0.2,0.6-0.2,0.9c-0.1,0.4-0.1,0.8-0.1,1.4c0,0.5,0,1,0,1.3v1.4v1v0.8v1.1
		c0,0.3,0,0.7,0,1.1c0,0.5,0,0.8,0.1,1.2c0,0.3,0.1,0.6,0.1,1c0.1,0.3,0.1,0.6,0.2,0.8c0.4,0.9,1,1.6,2,1.9c0.2,0.1,0.6,0.2,0.9,0.2
		c0.4,0.1,0.8,0.1,1.4,0.1c0.5,0,1,0,1.3,0h1.4h1h1h1.4c0.3,0,0.8,0,1.3,0c0.5,0,1-0.1,1.4-0.1c0.4-0.1,0.7-0.1,0.9-0.2
		c0.9-0.4,1.6-1,2-1.9c0.1-0.2,0.2-0.6,0.2-0.9C28.1,24.6,28.1,24.1,28.2,23.6 M30,19.9c0,2,0,3.4,0,4.2c-0.1,1.8-0.6,3.3-1.7,4.3
		c-1,1-2.4,1.5-4.3,1.6C23.2,30,21.8,30,19.9,30s-3.4,0-4.2-0.1c-1.8-0.1-3.3-0.6-4.3-1.6c-0.4-0.4-0.7-0.8-1-1.3
		c-0.2-0.5-0.4-1-0.5-1.4c-0.1-0.5-0.2-1-0.2-1.6c-0.1-0.8-0.1-2.2-0.1-4.2s0-3.4,0.1-4.2c0.1-1.8,0.6-3.2,1.6-4.2
		c1-1,2.4-1.6,4.3-1.7c0.8,0,2.2,0,4.2,0s3.4,0,4.2,0c1.8,0.1,3.3,0.6,4.3,1.7c1,1,1.6,2.4,1.7,4.3C30,16.5,30,17.9,30,19.9
		 M38.7,19.9c0-10.4-8.4-18.8-18.8-18.8S1.1,9.5,1.1,19.9c0,10.4,8.4,18.8,18.8,18.8S38.7,30.3,38.7,19.9"/>
	<path class="st1" d="M22.3,22.3c0.7-0.7,1-1.5,1-2.4c0-0.9-0.3-1.7-1-2.4c-0.7-0.7-1.5-1-2.4-1s-1.7,0.3-2.4,1
		c-0.7,0.7-1,1.5-1,2.4c0,0.9,0.3,1.7,1,2.4c0.7,0.7,1.5,1,2.4,1S21.6,22.9,22.3,22.3z M26.5,14.4c0,0.3-0.1,0.6-0.3,0.9
		c-0.2,0.2-0.5,0.4-0.8,0.4c-0.3,0-0.6-0.1-0.9-0.4c-0.2-0.2-0.4-0.5-0.4-0.9c0-0.3,0.1-0.6,0.4-0.8c0.2-0.2,0.5-0.3,0.9-0.3
		c0.3,0,0.6,0.1,0.8,0.3C26.4,13.8,26.5,14.1,26.5,14.4z M23.6,16.2c1,1,1.5,2.2,1.5,3.7c0,1.5-0.5,2.7-1.5,3.7
		c-1,1-2.2,1.5-3.7,1.5s-2.7-0.5-3.7-1.5c-1-1-1.5-2.2-1.5-3.7c0-1.5,0.5-2.7,1.5-3.7c1-1,2.2-1.5,3.7-1.5S22.6,15.2,23.6,16.2z
		 M28.2,23.6c0-0.5,0-1,0-1.3v-1.4v-1v-1v-1.4c0-0.3,0-0.8,0-1.3c0-0.5-0.1-1-0.1-1.4c-0.1-0.4-0.1-0.7-0.2-0.9c-0.4-0.9-1-1.6-2-2
		c-0.2-0.1-0.6-0.2-0.9-0.2c-0.4-0.1-0.8-0.1-1.4-0.1c-0.5,0-1,0-1.3,0h-1.4h-1h-1h-1.4c-0.3,0-0.8,0-1.3,0c-0.5,0-1,0.1-1.4,0.1
		c-0.4,0.1-0.7,0.1-0.9,0.2c-0.9,0.4-1.6,1-2,2c-0.1,0.2-0.2,0.6-0.2,0.9c-0.1,0.4-0.1,0.8-0.1,1.4c0,0.5,0,1,0,1.3v1.4v1v0.8v1.1
		c0,0.3,0,0.7,0,1.1c0,0.5,0,0.8,0.1,1.2c0,0.3,0.1,0.6,0.1,1c0.1,0.3,0.1,0.6,0.2,0.8c0.4,0.9,1,1.6,2,1.9c0.2,0.1,0.6,0.2,0.9,0.2
		c0.4,0.1,0.8,0.1,1.4,0.1c0.5,0,1,0,1.3,0h1.4h1h1h1.4c0.3,0,0.8,0,1.3,0c0.5,0,1-0.1,1.4-0.1c0.4-0.1,0.7-0.1,0.9-0.2
		c0.9-0.4,1.6-1,2-1.9c0.1-0.2,0.2-0.6,0.2-0.9C28.1,24.6,28.1,24.1,28.2,23.6z M30,19.9c0,2,0,3.4,0,4.2c-0.1,1.8-0.6,3.3-1.7,4.3
		c-1,1-2.4,1.5-4.3,1.6C23.2,30,21.8,30,19.9,30s-3.4,0-4.2-0.1c-1.8-0.1-3.3-0.6-4.3-1.6c-0.4-0.4-0.7-0.8-1-1.3
		c-0.2-0.5-0.4-1-0.5-1.4c-0.1-0.5-0.2-1-0.2-1.6c-0.1-0.8-0.1-2.2-0.1-4.2s0-3.4,0.1-4.2c0.1-1.8,0.6-3.2,1.6-4.2
		c1-1,2.4-1.6,4.3-1.7c0.8,0,2.2,0,4.2,0s3.4,0,4.2,0c1.8,0.1,3.3,0.6,4.3,1.7c1,1,1.6,2.4,1.7,4.3C30,16.5,30,17.9,30,19.9z
		 M38.7,19.9c0-10.4-8.4-18.8-18.8-18.8S1.1,9.5,1.1,19.9c0,10.4,8.4,18.8,18.8,18.8S38.7,30.3,38.7,19.9z"/>
</g>
</svg>
